<svg width="59" height="13" viewBox="0 0 59 13" fill="none" xmlns="http://www.w3.org/2000/svg">
<path d="M8.19 11.196H1.98V7.128H7.524V5.4H1.98V1.728H8.064V0H0V12.924H8.19V11.196Z" fill="#111111"/>
<path d="M12.4917 12.924V8.064H14.8677L18.0897 12.924H20.4657L16.9557 7.776C18.9177 7.308 20.0877 5.886 20.0877 4.032C20.0877 1.458 18.3057 0 15.3357 0H10.5117V12.924H12.4917ZM12.4917 1.656H15.2097C17.0457 1.656 18.0897 2.484 18.0897 4.032C18.0897 5.598 17.0457 6.408 15.2097 6.408H12.4917V1.656Z" fill="#111111"/>
<path d="M24.357 12.924V0H22.377V12.924H24.357Z" fill="#111111"/>
<path d="M29.1382 12.924V6.93L34.5562 12.924H37.0402L31.1362 6.336L36.8962 0H34.6102L29.1382 5.976V0H27.1582V12.924H29.1382Z" fill="#111111"/>
<path d="M40.7749 12.924V6.93L46.1929 12.924H48.6769L42.7729 6.336L48.5329 0H46.2469L40.7749 5.976V0H38.7949V12.924H40.7749Z" fill="#111111"/>
<path d="M53.925 8.34C56.361 8.34 58.185 6.48 58.185 4.176C58.185 1.86 56.361 0 53.925 0C51.501 0 49.677 1.86 49.677 4.176C49.677 6.48 51.501 8.34 53.925 8.34ZM53.925 7.668C51.885 7.668 50.457 6.108 50.457 4.176C50.457 2.232 51.885 0.672 53.925 0.672C55.977 0.672 57.405 2.232 57.405 4.176C57.405 6.108 55.977 7.668 53.925 7.668ZM54.837 6.288H55.785L54.657 4.644C55.233 4.476 55.641 4.032 55.641 3.408C55.641 2.544 55.029 2.064 54.021 2.064H52.389V6.288H53.181V4.752H53.841L54.837 6.288ZM53.973 2.712C54.561 2.712 54.861 2.976 54.861 3.408C54.861 3.852 54.561 4.104 53.973 4.104H53.181V2.712H53.973Z" fill="#111111"/>
</svg>
